<?xml version="1.0" encoding="utf-8"?>
<svg viewBox="623.364 50.2465 85.907 96" xmlns="http://www.w3.org/2000/svg">
  <defs></defs>
  <path d="M 662.364 52.556 C 664.839 51.127 667.889 51.127 670.364 52.556 L 703.933 71.937 C 706.408 73.366 707.933 76.007 707.933 78.865 L 707.933 117.628 C 707.933 120.486 706.408 123.127 703.933 124.556 L 670.364 143.937 C 667.889 145.366 664.839 145.366 662.364 143.937 L 628.795 124.556 C 626.32 123.127 624.795 120.486 624.795 117.628 L 624.795 78.865 C 624.795 76.007 626.32 73.366 628.795 71.937 L 662.364 52.556 Z" fill="white" transform="matrix(1, 0, 0, 1, -5.684341886080802e-14, -5.551115123125783e-17)"></path>
  <path fill-rule="evenodd" clip-rule="evenodd" d="M 702.555 73.149 L 669.934 54.316 C 667.696 53.023 664.939 53.023 662.701 54.316 L 630.081 73.149 C 627.843 74.441 626.464 76.829 626.464 79.413 L 626.464 117.08 C 626.464 119.664 627.843 122.052 630.081 123.344 L 662.701 142.178 C 664.939 143.47 667.696 143.47 669.934 142.178 L 702.555 123.344 C 704.793 122.052 706.171 119.664 706.171 117.08 L 706.171 79.413 C 706.171 76.829 704.793 74.441 702.555 73.149 Z M 671.484 51.631 C 668.287 49.785 664.348 49.785 661.151 51.631 L 628.531 70.464 C 625.333 72.31 623.364 75.721 623.364 79.413 L 623.364 117.08 C 623.364 120.772 625.333 124.183 628.531 126.029 L 661.151 144.862 C 664.348 146.708 668.287 146.708 671.484 144.862 L 704.105 126.029 C 707.302 124.183 709.271 120.772 709.271 117.08 L 709.271 79.413 C 709.271 75.721 707.302 72.31 704.105 70.464 L 671.484 51.631 Z" style="fill: rgb(6, 109, 165);" transform="matrix(1, 0, 0, 1, -5.684341886080802e-14, -5.551115123125783e-17)"></path>
  <g id="Page-1" stroke="none" stroke-width="1" fill="none" fill-rule="evenodd" transform="matrix(2.4000000953674316, 0, 0, 2.4000000953674316, 641.5869750976562, 74.31930541992188)">
    <g id="Dribbble-Light-Preview" transform="translate(-140.000000, -7559.000000)" fill="#000000">
      <g id="icons" transform="translate(56.000000, 160.000000)"></g>
    </g>
  </g>
  <g transform="matrix(0.140625, 0, 0, 0.140625, 574.373596, 79.388824)">
    <rect width="512" height="512" rx="288" fill="#ffffff" x="391.859" y="-120.63"></rect>
    <path stroke="#066da5" stroke-width="38" d="M 687.859 105.37 L 729.859 105.37 M 637.859 105.37 L 679.859 105.37 M 588.859 105.37 L 630.859 105.37 M 539.859 105.37 L 580.859 105.37 M 489.859 105.37 L 531.859 105.37 M 539.859 59.37 L 580.859 59.37 M 588.859 59.37 L 630.859 59.37 M 637.859 59.37 L 679.859 59.37 M 637.859 13.37 L 679.859 13.37"></path>
    <path fill="#066da5" d="M 863.859 107.37 C 863.859 107.37 845.859 90.37 808.859 96.37 C 804.859 67.37 773.859 50.37 773.859 50.37 C 773.859 50.37 744.859 85.37 765.859 124.37 C 759.859 127.37 749.859 131.37 734.859 131.37 L 459.859 131.37 C 454.859 150.37 454.859 276.37 592.859 276.37 C 691.859 276.37 765.859 230.37 800.859 146.37 C 852.859 150.37 863.859 107.37 863.859 107.37"></path>
  </g>
</svg>